<svg id="Layer_2" data-name="Layer 2" xmlns="http://www.w3.org/2000/svg" viewBox="0 0 198 44.007"><defs><style>.cls-1{fill:#594cda;}.cls-2{fill:#252c38;}</style></defs><title>logo</title><path class="cls-1" d="M9.882,31.96C9.882,35.534,5.81,41.152,0,44a42.109,42.109,0,0,0,22.115-6.023,37.814,37.814,0,0,0,6.832.723A28.579,28.579,0,0,0,46.68,32.987c4.587-3.475,7.339-8.274,7.339-13.685,0-5.312-2.752-10.11-7.339-13.685A29.2,29.2,0,0,0,28.947,0,29.429,29.429,0,0,0,11.21,5.613C6.626,9.189,3.876,13.987,3.876,19.3A16.876,16.876,0,0,0,9.882,31.96h0Z" transform="translate(0 0.001)"/><path class="cls-2" d="M101.093,5.823a3.162,3.162,0,0,1,.8,2.258v28.5a3.191,3.191,0,0,1-.824,2.281,2.8,2.8,0,0,1-2.133.874,2.768,2.768,0,0,1-2.375-1.116L78.871,15.558V36.582a3.309,3.309,0,0,1-.775,2.281,3.039,3.039,0,0,1-4.265,0,3.307,3.307,0,0,1-.775-2.281V8.08a3.105,3.105,0,0,1,.824-2.258,2.9,2.9,0,0,1,2.181-.85,2.723,2.723,0,0,1,2.326,1.116L96.028,29.056V8.08a3.162,3.162,0,0,1,.8-2.258,2.761,2.761,0,0,1,2.108-.85A2.822,2.822,0,0,1,101.093,5.823Z" transform="translate(0 0.001)"/><path class="cls-2" d="M126.343,17.573q2.4,2.452,2.4,7.453V36.873a2.747,2.747,0,0,1-.775,2.063,2.934,2.934,0,0,1-2.133.753,2.83,2.83,0,0,1-2.06-.777,2.714,2.714,0,0,1-.8-2.039V35.805a6.331,6.331,0,0,1-2.593,2.962,7.768,7.768,0,0,1-4.1,1.068,9.492,9.492,0,0,1-4.313-.972,7.666,7.666,0,0,1-3.053-2.67,6.752,6.752,0,0,1-1.115-3.787,6.007,6.007,0,0,1,1.333-4.128,8.017,8.017,0,0,1,4.338-2.185,39.434,39.434,0,0,1,8.288-.68h1.212V24.3a4.98,4.98,0,0,0-1.018-3.472,4.329,4.329,0,0,0-3.3-1.092,10.463,10.463,0,0,0-2.859.412q-1.453.413-3.441,1.189a4.831,4.831,0,0,1-1.842.632,1.816,1.816,0,0,1-1.429-.632,2.4,2.4,0,0,1-.558-1.65,2.49,2.49,0,0,1,.412-1.433,3.9,3.9,0,0,1,1.381-1.141,15.8,15.8,0,0,1,4.046-1.457A20.88,20.88,0,0,1,119,15.12Q123.944,15.12,126.343,17.573Zm-4.9,16.266a5.887,5.887,0,0,0,1.527-4.2V28.618H122.1a33.324,33.324,0,0,0-5.04.292,4.891,4.891,0,0,0-2.57,1.02,2.6,2.6,0,0,0-.775,1.99,3.3,3.3,0,0,0,1.091,2.55,3.841,3.841,0,0,0,2.689,1A5.17,5.17,0,0,0,121.448,33.838Z" transform="translate(0 0.001)"/><path class="cls-2" d="M168.994,17.427q2.059,2.307,2.06,7.453V36.825a2.74,2.74,0,0,1-.848,2.161,3.206,3.206,0,0,1-2.206.752,3.132,3.132,0,0,1-2.156-.752,2.737,2.737,0,0,1-.848-2.161V24.88a6.01,6.01,0,0,0-.946-3.812,3.532,3.532,0,0,0-2.883-1.141,4.742,4.742,0,0,0-3.78,1.626A6.568,6.568,0,0,0,155.98,26V36.825a2.74,2.74,0,0,1-.848,2.161,3.133,3.133,0,0,1-2.157.752,3.223,3.223,0,0,1-2.181-.752,2.7,2.7,0,0,1-.872-2.161V24.88a6.01,6.01,0,0,0-.946-3.812,3.532,3.532,0,0,0-2.883-1.141,4.67,4.67,0,0,0-3.756,1.626A6.646,6.646,0,0,0,140.956,26V36.825a2.7,2.7,0,0,1-.872,2.161,3.226,3.226,0,0,1-2.182.752,3.129,3.129,0,0,1-2.156-.752,2.737,2.737,0,0,1-.848-2.161V18.035a2.566,2.566,0,0,1,.872-2.088,3.282,3.282,0,0,1,2.181-.729,3,3,0,0,1,2.06.7,2.542,2.542,0,0,1,.8,2.015V19.1a7.612,7.612,0,0,1,2.98-2.962,8.8,8.8,0,0,1,4.29-1.02q5.33,0,7.124,4.468a8.017,8.017,0,0,1,3.15-3.254,9.173,9.173,0,0,1,4.7-1.214A7.549,7.549,0,0,1,168.994,17.427Z" transform="translate(0 0.001)"/><path class="cls-2" d="M197.3,33.572a2.63,2.63,0,0,1,.509,1.7,2.946,2.946,0,0,1-1.794,2.525,16.186,16.186,0,0,1-3.731,1.48,15.376,15.376,0,0,1-3.974.559q-5.72,0-9.063-3.3T175.9,27.5a13.884,13.884,0,0,1,1.454-6.458,10.589,10.589,0,0,1,4.1-4.37,11.592,11.592,0,0,1,5.986-1.554,10.726,10.726,0,0,1,5.573,1.408,9.551,9.551,0,0,1,3.684,3.981A13.236,13.236,0,0,1,198,26.579q0,2.089-1.842,2.088h-14.3a7.648,7.648,0,0,0,1.89,4.929,6.355,6.355,0,0,0,4.653,1.578,8.78,8.78,0,0,0,2.738-.389,26.8,26.8,0,0,0,2.69-1.068,5.341,5.341,0,0,1,2.132-.776A1.633,1.633,0,0,1,197.3,33.572ZM183.63,20.948a7.338,7.338,0,0,0-1.769,4.467h10.954a6.937,6.937,0,0,0-1.454-4.491,4.791,4.791,0,0,0-3.78-1.529A5.193,5.193,0,0,0,183.63,20.948Z" transform="translate(0 0.001)"/></svg>